<?xml version="1.0" encoding="UTF-8"?>
<!-- org: viewBox="0 0 712.91 392.6"-->
<svg id="Ebene_1" data-name="Ebene 1" xmlns="http://www.w3.org/2000/svg" viewBox="0 100 712.91 192.6">
  <defs>
    <style>
      .cls-1 {
        fill: #004577;
      }
    </style>
  </defs>
  <path class="cls-1" d="m454.91,210.94h5.33c0,.87,0,25.68,0,25.68l-22.88-28.11h-8.99v2.43h4.15c.73.87,2.13,2.53,2.1,2.53,0,0,0,29.13-.01,29.99h-5.29v2.43h13.03v-2.43h-5.3c0-.86,0-27.08,0-27.08l24.6,30.15h1.02s0-34.72,0-35.59h5.3v-2.43h-13.06v2.43Zm-292.91,44.17c.67-.46,1.12-.87,1.38-1.24.33-.48.49-.96.49-1.44,0-.71-.31-1.35-.92-1.89-.59-.53-1.38-.8-2.33-.8s-1.78.29-2.39.85c-.61.58-.92,1.27-.92,2.07,0,.52.14,1.02.42,1.5.22.39.65.85,1.3,1.42-.59.46-1.01.89-1.29,1.3-.36.53-.54,1.07-.54,1.62,0,.7.26,1.34.77,1.93.64.72,1.53,1.08,2.65,1.08,1.02,0,1.86-.3,2.51-.9.65-.61.98-1.35.98-2.2,0-.67-.23-1.32-.67-1.92-.26-.36-.73-.82-1.43-1.38Zm-2.36-3.72c.25-.23.58-.34,1-.34s.72.11.94.34c.23.23.33.55.33.97,0,.34-.07.64-.2.9-.08.16-.29.46-.81.95l-.96-.79c-.22-.21-.39-.43-.5-.65-.11-.21-.16-.41-.16-.61,0-.29.12-.53.36-.76Zm2.14,8.49c-.26.24-.6.36-1.05.36s-.79-.15-1.07-.46c-.29-.32-.43-.75-.43-1.31,0-.43.09-.82.27-1.19.14-.28.33-.55.59-.81.91.74,1.53,1.35,1.84,1.81.15.22.22.47.22.76,0,.33-.12.6-.37.84Zm-9.33-10.02h-2.17l-2.31,2.3.98.98,1.08-1.08v7.98h-1.51v1.38h5.41v-1.38h-1.47v-10.18Zm-10.57,5.24c.67-.46,1.12-.87,1.38-1.24.33-.48.49-.96.49-1.44,0-.71-.31-1.35-.92-1.89-.59-.53-1.38-.8-2.33-.8s-1.78.29-2.39.85c-.61.58-.92,1.27-.92,2.07,0,.52.14,1.02.42,1.5.22.39.65.85,1.3,1.42-.59.46-1.01.89-1.29,1.3-.36.53-.54,1.07-.54,1.62,0,.7.26,1.34.77,1.93.64.72,1.53,1.08,2.65,1.08,1.02,0,1.86-.3,2.51-.9.65-.61.98-1.35.98-2.2,0-.67-.23-1.32-.67-1.92-.26-.36-.73-.82-1.43-1.38Zm-2.36-3.72c.25-.23.58-.34,1-.34s.72.11.94.34c.23.23.33.55.33.97,0,.34-.07.64-.2.9-.08.16-.3.46-.81.95l-.96-.79c-.22-.21-.39-.43-.5-.65-.11-.21-.16-.41-.16-.61,0-.29.12-.53.36-.76Zm2.14,8.49c-.26.24-.6.36-1.05.36s-.79-.15-1.07-.46c-.29-.32-.43-.75-.43-1.31,0-.43.09-.82.27-1.19.14-.28.33-.55.59-.81.91.74,1.53,1.35,1.84,1.81.15.22.22.47.22.76,0,.33-.12.6-.37.84Zm425.62-48.93h5.29v32.51h-5.29v2.43h15.91v-2.43h-5.35v-32.51h5.35v-2.43h-15.91v2.43Zm67.32,3.98v-3.98h5.3v-2.42h-10.56s0,0,0,0l-13.36,29.23-13.54-29.23h0s-10.67,0-10.67,0v2.42h5.35v32.51h-5.35v2.42h13.11v-2.42h-5.34v-4.22h.03c0-.18,0-.32,0-.52v-24.1h.12l14.33,31.26h.9l14.27-31.26h.11v24.1c0,.2,0,.36,0,.55v4.19h-5.31v2.42h15.94v-2.42h-5.3v-3.97c0-.26,0-.48,0-.76v-23.02c0-.29,0-.51,0-.77Zm-544.84-13.16c-2.7,0-4.9,2.22-4.9,4.94v10.47h9.79v-10.47c0-2.72-2.2-4.94-4.9-4.94Zm2.47,12.99h-4.95v-8.05c0-1.39,1.11-2.52,2.47-2.52s2.47,1.13,2.47,2.52v8.05Zm40.11,35.11h-2.17l-2.31,2.3.98.98,1.08-1.08v7.98h-1.51v1.38h5.41v-1.38h-1.47v-10.18Zm423.95-6.41h-17.54v-15.85h12.65v5.31h2.43s0-13.05,0-13.05h-2.43v5.32h-12.64v-14.23h15.65v3.83h2.39s.02,0,.02,0h0s.01,0,.01,0v-6.26s0,0,0,0h0s-2.43,0-2.43,0h0s-26.23,0-26.23,0v2.43h5.28s0,31.64,0,32.51h-5.28v2.43h28.11s2.43,0,2.43,0v-6.43h-2.43v4.01Zm-53.16-34.93h0v2.42h5.3v14.68s-21.79,0-21.79,0v-14.68h5.31v-2.43h-15.92v2.43h5.3v32.51h-5.3v2.43h15.92v-2.43h-5.31v-15.4h21.8v15.4h-5.3v.5h0v1.91h0v.02h15.92v-2.43h-5.3v-32.51h5.3v-2.43h-15.91Zm-351.98-24.12c0-2.7-2.2-4.9-4.9-4.9s-4.9,2.2-4.9,4.9v9.6h9.79v-9.6Zm-2.42,7.18h-4.95v-7.18c0-1.37,1.11-2.48,2.47-2.48s2.47,1.11,2.47,2.48v7.18Zm269.61,51.87h-17.54v-15.85h12.65v5.31h2.43s0-13.05,0-13.05h-2.43v5.32h-12.64v-14.23h15.65v3.83h2.39s.02,0,.02,0h0s.01,0,.01,0v-6.26s0,0,0,0h0s-2.43,0-2.43,0h0s-26.23,0-26.23,0v2.43h5.28s0,31.64,0,32.51h-5.28v2.43h28.11s2.43,0,2.43,0v-6.43h-2.43v4.01ZM146.26,123.31c-40.4,0-73.28,32.87-73.28,73.28s32.87,73.28,73.28,73.28,73.28-32.87,73.28-73.28-32.87-73.28-73.28-73.28Zm-70.86,73.28c0-4.26.4-8.43,1.12-12.49h23.05v12.61h-24.17s0-.08,0-.13Zm2.46,18.18h-.1c-.9-3.4-1.55-6.9-1.94-10.48,1.15.22,2.04,1.2,2.04,2.43v8.05Zm.59,2.42h1.83v-10.47c0-2.65-2.08-4.8-4.67-4.92-.06-.88-.12-1.77-.15-2.66h24.11v20.82h-20.21c-.32-.92-.63-1.84-.91-2.77Zm8.84,18.69v-5.89c0-1.39,1.11-2.52,2.47-2.52s2.47,1.13,2.47,2.52v8.05h-3.44c-.51-.71-1.02-1.43-1.51-2.16Zm5.86,7.6c-.87-.98-1.71-1.99-2.52-3.02h4.03v-10.47c0-2.72-2.2-4.94-4.9-4.94s-4.9,2.22-4.9,4.94v1.97c-1.77-3.06-3.31-6.26-4.61-9.58h19.31v21.1h-6.42Zm53.1,23.97c-19.96,0-37.99-8.27-50.86-21.55h11.64s8.72,0,8.72,0h0s12.66,0,12.66,0h0s8.72,0,8.72,0h0s18.23,0,18.23,0h0s8.72.01,8.72.01h0s12.66-.01,12.66-.01h0s8.72.01,8.72.01h0s11.64-.01,11.64-.01c-12.88,13.28-30.9,21.55-50.86,21.55Zm.51-112.02c12.31,0,22.6,6.84,27.68,12.7l.46.33,14.63,5.92h-86.27l15.35-5.92.48-.34c5.08-5.86,15.38-12.7,27.68-12.7Zm-7.99-1.53v-2.32c1.38-1.5,4.33-2.49,7.53-2.49s6.03.95,7.44,2.4v2.19c-2.23-.43-4.56-.67-6.98-.67-2.78,0-5.45.33-7.99.89Zm51.71,22.9v19.92h-88.49v-19.92h88.49Zm0,22.34h0s0,0,0,0v20.82s-5.01,0-5.01,0v-9.96h0v-3.26c0-2.72-2.2-4.94-4.89-4.94s-4.9,2.22-4.9,4.94v3.26h-7.37v-3.27c0-2.7-2.2-4.89-4.9-4.89s-4.9,2.2-4.9,4.89v3.27h-7.37v-3.27c0-2.7-2.2-4.89-4.9-4.89s-4.9,2.2-4.9,4.89v3.27h-7.37v-3.32c0-2.7-2.2-4.9-4.9-4.9s-4.89,2.2-4.89,4.9v3.32h-7.37v-3.32c0-2.7-2.2-4.9-4.9-4.9s-4.9,2.2-4.9,4.9v13.28h-5.05v-20.82h0s88.49,0,88.49,0Zm.01,23.24v21.1s-5.02,0-5.02,0v-21.1h5.02Zm-13.74-2.42h0s-12.66,0-12.66,0h0s-8.72,0-8.72,0h0s-45.91,0-45.91,0v-7.54h73.59v7.54h-6.3Zm6.3,2.42v21.1h-3.88v-21.1h3.88Zm-6.3,0v21.1h-12.66v-21.1h12.66Zm-15.08,0v21.1h-3.88v-21.1h3.88Zm-6.3,0v21.1h-18.23v-21.1h18.23Zm-20.65,0v21.1h-3.88v-21.1h3.88Zm-6.3,0v21.1h-12.66v-21.1h12.66Zm-15.08,0v21.1h-3.88v-21.1h3.88Zm-3.88-12.38v-3.32c0-1.37,1.11-2.48,2.47-2.48s2.47,1.11,2.47,2.48v3.32h-4.95Zm17.16,0v-3.32c0-1.37,1.11-2.48,2.48-2.48s2.48,1.11,2.48,2.48v3.32h-4.95Zm17.16,0v-3.27c0-1.37,1.11-2.47,2.47-2.47s2.47,1.11,2.47,2.47v3.27h-4.95Zm17.16,0v-3.27c0-1.37,1.11-2.47,2.47-2.47s2.47,1.11,2.47,2.47v3.27h-4.95Zm17.16,0v-3.26c0-1.39,1.11-2.52,2.48-2.52s2.48,1.13,2.48,2.52v3.26h-4.95Zm-71.07,12.38v21.1h-5.05v-21.1h5.05Zm98.19,13.5c-.49.73-1,1.45-1.51,2.16h-3.44v-8.05c0-1.39,1.11-2.52,2.47-2.52s2.48,1.13,2.48,2.52v5.88Zm2.42-3.91v-1.97c0-2.72-2.2-4.94-4.9-4.94s-4.9,2.22-4.9,4.94v10.47h4.03c-.81,1.03-1.65,2.04-2.52,3.02h-6.44v-21.1s19.33,0,19.33,0c-1.3,3.33-2.84,6.53-4.61,9.58Zm7.11-17.19h-.1v-8.05c0-1.23.89-2.21,2.04-2.43-.39,3.58-1.04,7.08-1.94,10.48Zm2.15-12.97c-2.59.12-4.67,2.27-4.67,4.92v10.47h1.83c-.28.93-.59,1.86-.91,2.77h-20.23v-20.82s24.13,0,24.13,0c-.03.89-.08,1.78-.15,2.66Zm.21-5.21s0,.08,0,.13h-24.2v-3.21s0-9.41,0-9.41h23.09c.72,4.06,1.12,8.22,1.12,12.49Zm-24.2-14.91v-4.89h2.85v-2.51l-19.67-7.96c-4.26-4.83-11.26-9.86-19.92-12.1v-3.62l-.26-.33c-1.61-2.01-4.77-3.32-8.43-3.56v-14.37h-2.42v14.38c-3.68.26-6.92,1.65-8.45,3.7l-.24.32v3.77c-8.18,2.36-14.8,7.16-18.89,11.8l-20.7,7.98v2.51h2.81v4.9h-22.59c6.85-31.97,35.25-55.95,69.27-55.95s62.42,23.98,69.27,55.95h-22.62Zm-24.61-2.19h-9.79v14.52h9.79v-14.52Zm-2.42,12.1h-4.95v-9.68h4.95v9.68Zm41.76,15.12c0-2.72-2.2-4.94-4.9-4.94s-4.9,2.22-4.9,4.94v10.47h9.79v-10.47Zm-2.42,8.05h-4.95v-8.05c0-1.39,1.11-2.52,2.47-2.52s2.48,1.13,2.48,2.52v8.05Zm-71.25-35.27h-9.79v14.52h9.79v-14.52Zm-2.42,12.1h-4.95v-9.68h4.95v9.68Zm-14.74-12.1h-9.79v14.52h9.79v-14.52Zm-2.42,12.1h-4.95v-9.68h4.95v9.68Zm156.67,16.94h0v2.42h5.3v14.68s-21.79,0-21.79,0v-14.68h5.31v-2.43h-15.92v2.43h5.3v32.51h-5.3v2.43h15.92v-2.43h-5.31v-15.4h21.8v15.4h-5.3v.5h0v1.91h0v.02h15.92v-2.43h-5.3v-32.51h5.3v-2.43h-15.91Zm-85.6-29.04h-9.79v14.52h9.79v-14.52Zm-2.42,12.1h-4.95v-9.68h4.95v9.68Zm181.85,16.94h0v2.42h5.3v14.68s-21.79,0-21.79,0v-14.68h5.31v-2.43h-15.91v2.43h5.3v32.51h-5.3v2.43h15.91v-2.43h-5.31v-15.4h21.8v15.4h-5.3v.5h0v1.91h0v.02h15.92v-2.43h-5.3v-32.51h5.3v-2.43h-15.91Zm-52.51-.83c-11.51,0-18.92,9.07-18.92,19.51s7.42,19.52,18.92,19.52,18.93-9.08,18.93-19.52-7.42-19.51-18.93-19.51Zm0,37.01c-9.57,0-12.38-9.09-12.38-17.5s2.8-17.49,12.38-17.49,12.39,9.08,12.39,17.49-2.81,17.5-12.39,17.5Zm-63.71-73.27c0,7.01,2.4,13.48,13.01,13.48s12.76-7.22,12.76-13.64v-20.32h4.7v-2.3h-11.59v2.3h4.73v17.7c0,2.89,0,7.06-1.6,9.63-1.9,3-5.5,4.35-8.76,4.35s-6.61-1.6-7.76-5.14c-.6-1.87-.8-5.78-.8-7.86v-18.67h4.71v-2.3h-14.12v2.3h4.71v20.48Zm71.64-20.48h5.03c0,.82,0,2.59,0,4.54v26.81h-5.04v1.81h15.1v-1.81h-5.03v-31.35h5.03v-2.3h-15.1v2.3Zm37.23,33.17h.96l12.09-29.53c.47-1.15,1.04-2.6,1.44-3.63h4.12v-2.3h-10.95v2.3h4.42c-.67,1.67-1.79,4.48-2.08,5.19l-8.14,19.96-8.72-20.17c-.36-.83-1.48-3.4-2.16-4.97h4.64v-2.3h-14.51v2.3h4.46l14.42,33.17Zm95.55-28.65c0-3.21,3.1-5.5,6.15-5.5,5.87,0,9.51,4.51,9.89,10.12v.06h2.3v-11.49h-2.3v4.44c-2.05-3.13-5.59-5.21-9.61-5.21h-.06c-5.57,0-10.49,4-10.49,9.47,0,10.59,18.83,11.55,18.83,19.69,0,3.91-3.48,5.79-7.06,5.79-3.14,0-9.58-1.49-10.46-9.87v-.24h-2.3v11.41h.35s1.93,0,1.93,0h0s.03,0,.03,0v-5.02c2.15,3.47,5.96,5.8,10.34,5.8.22,0,.44,0,.66,0,6.79,0,11.19-4.65,11.19-10.22,0-10.49-19.37-11.77-19.37-19.21Zm38.19,26.35h-5.08v-30.83h5.08v-2.3h-15.09v2.3h5.01v3.37c0,.37.01.71.01,1.13v21.83c0,.42,0,.77-.01,1.13v3.37h-5.01v2.3h15.09v-2.3Zm32.47-33.13h0s-.37,0-.37,0h0s-28.93,0-28.93,0h0s-.35,0-.35,0h0s0,0,0,0v5.91h.97s.88,0,.88,0h0s.45-.01.45-.01v-3.6h9.99l.02,26.33c0,.68,0,1.28-.02,1.81v2.68h-5v2.3h15.13v-2.3h-5.09v-30.83h10.02v3.6h.42s.9.01.9.01h0s.99,0,.99,0v-4.77s-.01-1.15-.01-1.15Zm-118.05,35.43h2.3v-6.12h-2.3v3.82h-16.64v-15.05h12v5.04h.45s.88,0,.88,0h0s.96,0,.96,0v-12.38h-2.3v5.04h-11.98v-13.51h14.84v3.65h.45s1.84,0,1.84,0h0s.01,0,.01,0v-5.95s0,0,0,0h0s-2.3,0-2.3,0h0s-24.88,0-24.88,0v2.3h5.01v26.37c0,1.92,0,3.68,0,4.49h-5.01v2.3h26.66Zm-118.3-30.76v23.97c0,1.92,0,3.68-.01,4.49h-4.75v2.3h11.71v-2.3h-4.76v-25.58h.1l22.01,28.46h.91v-29.21c0-1.96,0-3.72,0-4.54h4.76v-2.3h-11.73v2.3h4.79c0,.82,0,2.59,0,4.54v19.69h-.1l-20.46-26.53h-8.08v2.3h3.73c.66.82,1.92,2.39,1.89,2.4Zm134.36,14.23h3.64l12.01,16.49v.05h7.4v-2.3h-3.47l-10.75-14.93c4.66-.96,8.78-3.84,8.78-8.99,0-3.1-1.86-9.24-12.3-9.24h-15.36v2.3h5.03v30.86h-5.03v2.3h15.09v-2.3h-5.03v-14.24Zm0-16.63h4.39c4.33,0,7.21,2.88,7.21,7.16,0,5.94-5.35,7.76-10.43,7.76h-1.18v-14.92Zm170.37,33.43c10.92,0,17.95-8.61,17.95-18.51s-7.03-18.5-17.95-18.5-17.95,8.6-17.95,18.5,7.03,18.51,17.95,18.51Zm0-35.1c9.09,0,11.75,8.61,11.75,16.58s-2.66,16.59-11.75,16.59-11.74-8.62-11.74-16.59,2.66-16.58,11.74-16.58Zm35.61,32.53h-5v-15.05h12v5.04h.45s.88,0,.88,0h0s.96,0,.96,0v-12.38h-2.3v5.04h-11.98v-13.51h14.84v3.65h.45s1.84,0,1.84,0h0s.01,0,.01,0v-5.95s0,0,0,0h0s-2.3,0-2.3,0h0s-24.88,0-24.88,0v2.3h5.01v26.37c0,1.92,0,3.68,0,4.49h-5.01v2.3h15.02v-2.3Zm-75.4-30.83h5.18l-10.15,16.11-10.15-16.11h4.96v-2.3h-15.64v2.3h4.7l11.94,18.95v7.39c.01.68,0,1.28-.01,1.81v2.68h-5v2.3h15.13v-2.3h-5.09v-11.89l11.94-18.95h4.96v-2.3h-12.77v2.3Z"/>
</svg>